Compressed with Super. Looks great on my 46 inch LCD played through WD Media players first version. MP3 created with AoA Audio Extractor. Questions, comments, and suggestions always welcome. PLEASE SHARE!   ________________________________________________________________________________________________________________________________________________________________________General
Complete name                    : Letterman_Sheryl_Crow_Song_Only_20100720.avi
Format                           : AVI
Format/Info                      : Audio Video Interleave
File size                        : 117 MiB
Duration                         : 7mn 24s
Overall bit rate                 : 2 217 Kbps
Movie name                       : Letterman_Sheryl_Crow_Song_Only_20100720.mpg
Director                         : created.with.SUPER(C).v2010.bld.37
Writing application              : SUPER(C)   

Video
ID                               : 0
Format                           : MPEG-4 Visual
Format profile                   : Simple@L3
Format settings, BVOP            : No
Format settings, QPel            : No
Format settings, GMC             : No warppoints
Format settings, Matrix          : Default (H.263)
Codec ID                         : XVID
Codec ID/Hint                    : XviD
Duration                         : 3mn 42s
Bit rate                         : 4 325 Kbps
Width                            : 1 280 pixels
Height                           : 720 pixels
Display aspect ratio             : 16:9
Frame rate                       : 29.970 fps
Resolution                       : 8 bits
Colorimetry                      : 4:2:0
Scan type                        : Progressive
Bits/(Pixel*Frame)               : 0.157
Stream size                      : 115 MiB (98%)
Writing library                  : XviD 1.1.2 (UTC 2006-11-01)
____________________________________________________________________________________
                                                                                                                         Audio 
ID                               : 1
Format                           : MPEG Audio
Format version                   : Version 2
Format profile                   : Layer 3
Mode                             : Joint stereo
Format_Settings_ModeExtension    : MS Stereo
Codec ID                         : 55
Codec ID/Hint                    : MP3
Duration                         : 7mn 24s
Bit rate mode                    : Constant
Bit rate                         : 96.0 Kbps
Channel(s)                       : 2 channels
Sampling rate                    : 22.05 KHz
Stream size                      : 2.54 MiB (2%)
Alignment                        : Aligned on interleaves
Interleave, duration             : 26 ms (0.78 video frame)
Writing library                  : LAME3.98Jqâ